<svg xmlns="http://www.w3.org/2000/svg" xmlns:xlink="http://www.w3.org/1999/xlink" width="500" zoomAndPan="magnify" viewBox="0 0 375 374.999991" height="500" preserveAspectRatio="xMidYMid meet" version="1.0"><defs><clipPath id="47de9ca4fa"><path d="M 40.269531 78 L 74.019531 78 L 74.019531 126 L 40.269531 126 Z M 40.269531 78 " clip-rule="nonzero"/></clipPath><clipPath id="4188ee5ac1"><path d="M 40.269531 77.675781 L 74.019531 77.675781 L 74.019531 127.175781 L 40.269531 127.175781 Z M 40.269531 77.675781 " clip-rule="nonzero"/></clipPath><clipPath id="d831593bb0"><path d="M 114 328.589844 L 142.539062 328.589844 L 142.539062 375 L 114 375 Z M 114 328.589844 " clip-rule="nonzero"/></clipPath><clipPath id="a9a0428837"><path d="M 113.289062 328.589844 L 142.539062 328.589844 L 142.539062 375 L 113.289062 375 Z M 113.289062 328.589844 " clip-rule="nonzero"/></clipPath><clipPath id="e7da8aa3d2"><path d="M 247.539062 204 L 282 204 L 282 254 L 247.539062 254 Z M 247.539062 204 " clip-rule="nonzero"/></clipPath><clipPath id="9b300a0bd2"><path d="M 247.539062 203.449219 L 282.789062 203.449219 L 282.789062 255.199219 L 247.539062 255.199219 Z M 247.539062 203.449219 " clip-rule="nonzero"/></clipPath></defs><path fill="#ffffff" d="M 322.867188 8.863281 C 321.6875 7.472656 320.375 6.226562 318.925781 5.125 C 317.476562 4.019531 315.925781 3.085938 314.273438 2.320312 C 312.621094 1.554688 310.90625 0.976562 309.128906 0.585938 C 307.351562 0.195312 305.550781 0 303.730469 0 L 57.617188 0 C 56.707031 0 55.804688 0.0507812 54.902344 0.148438 C 54 0.246094 53.105469 0.390625 52.21875 0.585938 C 51.332031 0.78125 50.460938 1.027344 49.597656 1.316406 C 48.738281 1.605469 47.898438 1.941406 47.074219 2.324219 C 46.25 2.707031 45.449219 3.128906 44.671875 3.597656 C 43.894531 4.066406 43.148438 4.578125 42.425781 5.125 C 41.703125 5.675781 41.011719 6.265625 40.355469 6.890625 C 39.695312 7.515625 39.074219 8.171875 38.488281 8.867188 C 37.902344 9.558594 37.355469 10.28125 36.84375 11.03125 C 36.335938 11.785156 35.871094 12.5625 35.449219 13.363281 C 35.023438 14.167969 34.644531 14.992188 34.3125 15.835938 C 33.976562 16.679688 33.6875 17.539062 33.449219 18.414062 C 33.207031 19.289062 33.015625 20.175781 32.867188 21.070312 C 32.722656 21.964844 32.628906 22.867188 32.582031 23.773438 C 32.535156 24.679688 32.535156 25.585938 32.589844 26.492188 C 32.640625 27.398438 32.738281 28.300781 32.890625 29.195312 L 41.25 79.339844 C 41.484375 80.792969 41.847656 82.214844 42.335938 83.601562 C 42.824219 84.992188 43.433594 86.328125 44.15625 87.609375 C 44.882812 88.890625 45.714844 90.101562 46.652344 91.234375 C 47.59375 92.371094 48.625 93.414062 49.746094 94.367188 C 50.871094 95.316406 52.070312 96.164062 53.34375 96.90625 C 54.617188 97.644531 55.945312 98.265625 57.328125 98.773438 C 58.710938 99.277344 60.128906 99.65625 61.578125 99.910156 C 63.027344 100.164062 64.488281 100.289062 65.960938 100.285156 L 295.382812 100.285156 C 296.855469 100.289062 298.316406 100.164062 299.765625 99.910156 C 301.21875 99.65625 302.632812 99.277344 304.019531 98.773438 C 305.402344 98.265625 306.730469 97.644531 308.003906 96.90625 C 309.277344 96.164062 310.472656 95.316406 311.597656 94.367188 C 312.722656 93.414062 313.75 92.371094 314.691406 91.234375 C 315.628906 90.101562 316.460938 88.890625 317.1875 87.609375 C 317.910156 86.328125 318.519531 84.992188 319.007812 83.601562 C 319.496094 82.214844 319.859375 80.792969 320.097656 79.339844 L 328.457031 29.195312 C 328.757812 27.398438 328.859375 25.59375 328.765625 23.773438 C 328.671875 21.957031 328.382812 20.167969 327.902344 18.414062 C 327.417969 16.65625 326.753906 14.972656 325.902344 13.363281 C 325.054688 11.753906 324.042969 10.253906 322.867188 8.863281 Z M 295.382812 87.75 L 295.382812 75.214844 Z M 295.382812 75.214844 L 65.960938 75.214844 L 57.617188 25.070312 L 303.742188 25.070312 Z M 295.382812 75.214844 " fill-opacity="1" fill-rule="nonzero"/><path fill="#ffffff" d="M 276.082031 125.355469 L 85.261719 125.355469 C 84.273438 125.355469 83.285156 125.414062 82.304688 125.527344 C 81.320312 125.644531 80.347656 125.816406 79.382812 126.050781 C 78.421875 126.28125 77.476562 126.566406 76.546875 126.910156 C 75.617188 127.253906 74.714844 127.648438 73.832031 128.101562 C 72.949219 128.550781 72.097656 129.050781 71.277344 129.601562 C 70.453125 130.152344 69.667969 130.75 68.914062 131.394531 C 68.164062 132.039062 67.453125 132.726562 66.78125 133.457031 C 66.113281 134.183594 65.488281 134.949219 64.910156 135.753906 C 64.328125 136.558594 63.800781 137.390625 63.320312 138.257812 C 62.835938 139.121094 62.410156 140.011719 62.035156 140.929688 C 61.660156 141.847656 61.339844 142.78125 61.074219 143.734375 C 60.8125 144.691406 60.605469 145.65625 60.453125 146.636719 C 60.304688 147.613281 60.214844 148.597656 60.179688 149.589844 C 60.148438 150.578125 60.171875 151.566406 60.257812 152.550781 C 60.339844 153.539062 60.480469 154.515625 60.683594 155.488281 C 60.882812 156.457031 61.136719 157.410156 61.449219 158.351562 L 78.15625 208.492188 C 78.570312 209.738281 79.078125 210.9375 79.679688 212.101562 C 80.28125 213.265625 80.972656 214.375 81.746094 215.429688 C 82.523438 216.484375 83.375 217.472656 84.308594 218.390625 C 85.238281 219.3125 86.234375 220.15625 87.296875 220.921875 C 88.359375 221.6875 89.476562 222.363281 90.644531 222.953125 C 91.8125 223.542969 93.019531 224.039062 94.265625 224.441406 C 95.511719 224.839844 96.78125 225.140625 98.078125 225.34375 C 99.371094 225.546875 100.671875 225.644531 101.980469 225.644531 L 259.363281 225.644531 C 260.671875 225.644531 261.972656 225.542969 263.265625 225.34375 C 264.558594 225.140625 265.828125 224.839844 267.074219 224.4375 C 268.320312 224.035156 269.527344 223.539062 270.695312 222.949219 C 271.863281 222.359375 272.980469 221.683594 274.039062 220.917969 C 275.101562 220.152344 276.097656 219.308594 277.027344 218.390625 C 277.957031 217.46875 278.8125 216.480469 279.585938 215.425781 C 280.363281 214.371094 281.050781 213.261719 281.652344 212.101562 C 282.253906 210.9375 282.761719 209.734375 283.175781 208.492188 L 299.882812 158.351562 C 300.195312 157.410156 300.449219 156.457031 300.648438 155.488281 C 300.851562 154.519531 300.992188 153.539062 301.074219 152.554688 C 301.160156 151.566406 301.183594 150.578125 301.152344 149.589844 C 301.117188 148.601562 301.027344 147.617188 300.878906 146.636719 C 300.726562 145.660156 300.523438 144.695312 300.257812 143.738281 C 299.992188 142.785156 299.675781 141.851562 299.300781 140.933594 C 298.925781 140.019531 298.496094 139.128906 298.015625 138.261719 C 297.535156 137.394531 297.007812 136.5625 296.425781 135.757812 C 295.847656 134.957031 295.222656 134.191406 294.554688 133.460938 C 293.882812 132.734375 293.175781 132.046875 292.421875 131.402344 C 291.671875 130.757812 290.886719 130.160156 290.0625 129.605469 C 289.242188 129.054688 288.390625 128.554688 287.507812 128.105469 C 286.628906 127.652344 285.722656 127.257812 284.792969 126.914062 C 283.867188 126.570312 282.921875 126.28125 281.957031 126.050781 C 280.996094 125.820312 280.023438 125.644531 279.042969 125.53125 C 278.058594 125.414062 277.070312 125.355469 276.082031 125.355469 Z M 259.363281 200.570312 L 101.980469 200.570312 L 85.261719 150.429688 L 276.070312 150.429688 Z M 259.363281 200.570312 " fill-opacity="1" fill-rule="nonzero"/><path fill="#ffffff" d="M 238.484375 250.714844 L 122.859375 250.714844 C 121.871094 250.714844 120.882812 250.769531 119.898438 250.886719 C 118.917969 251 117.945312 251.175781 116.980469 251.40625 C 116.019531 251.636719 115.074219 251.925781 114.144531 252.265625 C 113.214844 252.609375 112.3125 253.007812 111.429688 253.457031 C 110.546875 253.90625 109.695312 254.410156 108.875 254.960938 C 108.050781 255.511719 107.265625 256.109375 106.511719 256.753906 C 105.761719 257.398438 105.050781 258.085938 104.378906 258.8125 C 103.710938 259.542969 103.085938 260.308594 102.507812 261.109375 C 101.925781 261.914062 101.394531 262.75 100.914062 263.613281 C 100.433594 264.480469 100.007812 265.371094 99.632812 266.285156 C 99.257812 267.203125 98.9375 268.136719 98.671875 269.09375 C 98.410156 270.046875 98.203125 271.015625 98.050781 271.992188 C 97.902344 272.972656 97.8125 273.957031 97.777344 274.945312 C 97.746094 275.933594 97.769531 276.921875 97.855469 277.910156 C 97.9375 278.894531 98.078125 279.875 98.28125 280.84375 C 98.480469 281.8125 98.734375 282.769531 99.046875 283.707031 L 115.753906 333.851562 C 116.167969 335.09375 116.675781 336.296875 117.277344 337.460938 C 117.878906 338.621094 118.570312 339.730469 119.34375 340.785156 C 120.121094 341.839844 120.972656 342.828125 121.902344 343.75 C 122.835938 344.671875 123.832031 345.511719 124.894531 346.277344 C 125.957031 347.042969 127.074219 347.722656 128.242188 348.3125 C 129.410156 348.902344 130.617188 349.394531 131.863281 349.796875 C 133.109375 350.199219 134.378906 350.5 135.675781 350.699219 C 136.96875 350.902344 138.269531 351.003906 139.578125 351 L 221.765625 351 C 223.074219 351 224.375 350.902344 225.667969 350.699219 C 226.960938 350.496094 228.230469 350.195312 229.476562 349.792969 C 230.722656 349.394531 231.929688 348.898438 233.097656 348.308594 C 234.265625 347.71875 235.382812 347.039062 236.441406 346.273438 C 237.503906 345.511719 238.5 344.667969 239.429688 343.746094 C 240.363281 342.824219 241.214844 341.835938 241.988281 340.78125 C 242.765625 339.730469 243.453125 338.621094 244.054688 337.457031 C 244.65625 336.296875 245.164062 335.09375 245.578125 333.851562 L 262.285156 283.707031 C 262.597656 282.769531 262.851562 281.816406 263.054688 280.84375 C 263.253906 279.875 263.394531 278.898438 263.476562 277.910156 C 263.5625 276.925781 263.585938 275.9375 263.554688 274.949219 C 263.519531 273.957031 263.429688 272.972656 263.28125 271.996094 C 263.128906 271.015625 262.925781 270.050781 262.660156 269.097656 C 262.394531 268.144531 262.078125 267.207031 261.703125 266.292969 C 261.328125 265.375 260.898438 264.484375 260.417969 263.617188 C 259.9375 262.753906 259.410156 261.917969 258.828125 261.117188 C 258.25 260.3125 257.625 259.546875 256.957031 258.820312 C 256.289062 258.089844 255.578125 257.402344 254.824219 256.757812 C 254.074219 256.113281 253.289062 255.515625 252.464844 254.964844 C 251.644531 254.414062 250.792969 253.910156 249.910156 253.460938 C 249.03125 253.011719 248.125 252.613281 247.195312 252.269531 C 246.269531 251.925781 245.324219 251.640625 244.363281 251.410156 C 243.398438 251.175781 242.425781 251.003906 241.445312 250.886719 C 240.460938 250.769531 239.472656 250.714844 238.484375 250.714844 Z M 221.765625 325.929688 L 139.578125 325.929688 L 122.859375 275.785156 L 238.472656 275.785156 Z M 221.765625 325.929688 " fill-opacity="1" fill-rule="nonzero"/><g clip-path="url(#47de9ca4fa)"><path fill="#ffffff" d="M 87.878906 78.910156 L 40.847656 78.910156 L 40.847656 125.945312 Z M 87.878906 78.910156 " fill-opacity="1" fill-rule="nonzero"/></g><g clip-path="url(#4188ee5ac1)"><path fill="#ffffff" d="M 39.765625 125.945312 L 39.765625 78.910156 C 39.765625 78.140625 40.230469 77.675781 40.847656 77.675781 L 87.878906 77.675781 C 88.339844 77.675781 88.804688 77.984375 88.957031 78.449219 C 89.265625 78.757812 89.113281 79.375 88.804688 79.683594 L 41.769531 126.714844 C 41.460938 127.023438 41 127.175781 40.539062 127.023438 C 40.074219 126.714844 39.765625 126.40625 39.765625 125.945312 Z M 42.078125 79.992188 L 42.078125 123.015625 L 85.101562 79.992188 Z M 42.078125 79.992188 " fill-opacity="1" fill-rule="nonzero"/></g><g clip-path="url(#d831593bb0)"><path fill="#ffffff" d="M 164.84375 323.410156 L 114.25 323.410156 L 114.25 374.007812 Z M 164.84375 323.410156 " fill-opacity="1" fill-rule="nonzero"/></g><g clip-path="url(#a9a0428837)"><path fill="#ffffff" d="M 113.089844 374.007812 L 113.089844 323.410156 C 113.089844 322.582031 113.585938 322.085938 114.25 322.085938 L 164.84375 322.085938 C 165.34375 322.085938 165.839844 322.417969 166.007812 322.914062 C 166.339844 323.246094 166.171875 323.910156 165.839844 324.242188 L 115.246094 374.835938 C 114.914062 375.167969 114.414062 375.335938 113.917969 375.167969 C 113.417969 374.835938 113.089844 374.503906 113.089844 374.007812 Z M 115.578125 324.574219 L 115.578125 370.855469 L 161.859375 324.574219 Z M 115.578125 324.574219 " fill-opacity="1" fill-rule="nonzero"/></g><g clip-path="url(#e7da8aa3d2)"><path fill="#ffffff" d="M 232.765625 204.738281 L 281.9375 204.738281 L 281.9375 253.90625 Z M 232.765625 204.738281 " fill-opacity="1" fill-rule="nonzero"/></g><g clip-path="url(#9b300a0bd2)"><path fill="#ffffff" d="M 283.0625 253.90625 L 283.0625 204.738281 C 283.0625 203.929688 282.582031 203.449219 281.9375 203.449219 L 232.765625 203.449219 C 232.28125 203.449219 231.796875 203.769531 231.636719 204.253906 C 231.3125 204.574219 231.476562 205.21875 231.796875 205.542969 L 280.96875 254.714844 C 281.289062 255.035156 281.773438 255.199219 282.257812 255.035156 C 282.742188 254.714844 283.0625 254.390625 283.0625 253.90625 Z M 280.644531 205.867188 L 280.644531 250.84375 L 235.667969 205.867188 Z M 280.644531 205.867188 " fill-opacity="1" fill-rule="nonzero"/></g></svg>